<?xml version="1.0" encoding="utf-8"?>
<!-- Generator: Adobe Illustrator 16.0.0, SVG Export Plug-In . SVG Version: 6.00 Build 0)  -->
<!DOCTYPE svg PUBLIC "-//W3C//DTD SVG 1.1//EN" "http://www.w3.org/Graphics/SVG/1.1/DTD/svg11.dtd">
<svg version="1.1"
	 id="svg3022" xmlns:inkscape="http://www.inkscape.org/namespaces/inkscape" xmlns:sodipodi="http://sodipodi.sourceforge.net/DTD/sodipodi-0.dtd" xmlns:svg="http://www.w3.org/2000/svg" xmlns:rdf="http://www.w3.org/1999/02/22-rdf-syntax-ns#" xmlns:cc="http://creativecommons.org/ns#" xmlns:dc="http://purl.org/dc/elements/1.1/" sodipodi:docname="bookmark-missing.svg" inkscape:version="0.48+devel r12149"
	 xmlns="http://www.w3.org/2000/svg" xmlns:xlink="http://www.w3.org/1999/xlink" x="0px" y="0px" width="31.543px" height="30px"
	 viewBox="8.228 9 31.543 30" enable-background="new 8.228 9 31.543 30" xml:space="preserve">
<sodipodi:namedview  id="base" pagecolor="#ffffff" bordercolor="#666666" borderopacity="1.0" inkscape:zoom="7.9195959" inkscape:cx="17.161114" inkscape:cy="35.301729" showgrid="false" inkscape:window-maximized="1" inkscape:window-y="28" inkscape:window-x="0" inkscape:window-height="716" inkscape:window-width="1366" inkscape:pageshadow="2" inkscape:pageopacity="0.0" inkscape:current-layer="layer1" inkscape:document-units="px">
	</sodipodi:namedview>
<g id="layer1" transform="translate(0,-1004.3622)" inkscape:label="Capa 1" inkscape:groupmode="layer">
	<g id="_x33__rating_not_important" transform="matrix(0.40454165,0,0,0.40454165,-131.92572,740.86739)">
		<path id="path1108" inkscape:connector-curvature="0" d="M385.436,680.874l8.372,19.684l0.671,1.574l1.704,0.152l21.311,1.878
			l-16.135,14.052l-1.289,1.12l0.386,1.67l4.794,20.85l-18.346-11.005l-1.468-0.879l-1.468,0.879l-18.349,11.003l4.801-20.847
			l0.381-1.668l-1.291-1.122l-16.134-14.049l21.312-1.878l1.702-0.15l0.671-1.574L385.436,680.874 M385.436,673.587l-10.998,25.855
			l-27.988,2.47l21.19,18.45l-6.304,27.384l24.095-14.455l24.101,14.455l-6.301-27.384l21.19-18.45l-27.99-2.47L385.436,673.587
			L385.436,673.587L385.436,673.587z"/>
	</g>
</g>
</svg>
