<?xml version="1.0" encoding="utf-8"?>
<!-- Generator: Adobe Illustrator 16.0.0, SVG Export Plug-In . SVG Version: 6.00 Build 0)  -->
<!DOCTYPE svg PUBLIC "-//W3C//DTD SVG 1.1//EN" "http://www.w3.org/Graphics/SVG/1.1/DTD/svg11.dtd">
<svg version="1.1"
	 id="svg53383" xmlns:inkscape="http://www.inkscape.org/namespaces/inkscape" xmlns:sodipodi="http://sodipodi.sourceforge.net/DTD/sodipodi-0.dtd" xmlns:svg="http://www.w3.org/2000/svg" xmlns:rdf="http://www.w3.org/1999/02/22-rdf-syntax-ns#" xmlns:cc="http://creativecommons.org/ns#" xmlns:dc="http://purl.org/dc/elements/1.1/" sodipodi:docbase="/home/jimmac/src/cvs/tango-icon-theme/scalable/categories" sodipodi:docname="applications-system.svg" inkscape:version="0.46" sodipodi:version="0.32" inkscape:output_extension="org.inkscape.output.svg.inkscape"
	 xmlns="http://www.w3.org/2000/svg" xmlns:xlink="http://www.w3.org/1999/xlink" x="0px" y="0px" width="44.856px"
	 height="44.859px" viewBox="-28.927 -26.557 44.856 44.859" enable-background="new -28.927 -26.557 44.856 44.859"
	 xml:space="preserve">
<defs>
	
	
		<inkscape:perspective  id="perspective31" inkscape:persp3d-origin="24 : 16 : 1" inkscape:vp_x="0 : 24 : 1" inkscape:vp_y="0 : 1000 : 0" sodipodi:type="inkscape:persp3d" inkscape:vp_z="48 : 24 : 1">
		</inkscape:perspective>
</defs>
<sodipodi:namedview  id="base" pagecolor="#ffffff" bordercolor="#666666" borderopacity="0.11764706" inkscape:zoom="5.6568542" inkscape:cx="43.652227" inkscape:cy="21.164787" showgrid="false" inkscape:window-y="151" inkscape:window-x="562" inkscape:window-height="697" inkscape:window-width="872" inkscape:pageshadow="2" inkscape:pageopacity="0.0" inkscape:current-layer="layer1" inkscape:document-units="px" inkscape:showpageshadow="false" inkscape:grid-bbox="true">
	</sodipodi:namedview>
<path id="path3243" inkscape:r_cy="true" inkscape:r_cx="true" fill="#505050" d="M-7.675-26.553
	c-0.475,0.033-0.935,0.104-1.398,0.159h-0.031l-1.11,6.065c-1.812,0.413-3.52,1.113-5.054,2.065l-4.986-3.59
	c-1.35,1.047-2.575,2.268-3.653,3.59l3.464,5.051c-1.052,1.607-1.843,3.441-2.288,5.369c0,0.009,0,0.03,0,0.032l-6.036,0.953
	c-0.108,0.898-0.158,1.833-0.158,2.764c0,0.762,0.021,1.514,0.096,2.256l6.036,1.08c0.43,2.096,1.245,4.054,2.383,5.782l-3.59,4.925
	c1.026,1.275,2.215,2.438,3.495,3.462l5.083-3.494c1.774,1.133,3.76,1.931,5.907,2.319l0.953,6.004
	c0.677,0.062,1.372,0.062,2.064,0.062c0.979,0,1.914-0.036,2.857-0.158l1.146-6.131c2.041-0.511,3.958-1.392,5.623-2.573L8.019,13
	c1.271-1.079,2.431-2.317,3.433-3.65L7.892,4.2c0.964-1.664,1.632-3.501,1.97-5.464l6.006-0.953
	c0.053-0.627,0.062-1.235,0.062-1.875c0-1.112-0.131-2.203-0.287-3.272l-6.1-1.11c-0.479-1.768-1.264-3.412-2.255-4.896l3.59-4.924
	c-1.111-1.358-2.382-2.618-3.779-3.685l-5.18,3.558c-1.487-0.88-3.09-1.556-4.829-1.938l-0.952-6.036
	c-0.867-0.104-1.742-0.159-2.638-0.159c-0.242,0-0.491-0.007-0.729,0c-0.117,0.004-0.231-0.007-0.351,0
	C-7.612-26.551-7.644-26.555-7.675-26.553z M-6.85-11.113c0.116-0.009,0.231,0,0.352,0c3.762,0,6.83,3.067,6.83,6.828
	c0,3.764-3.068,6.802-6.83,6.802c-3.763,0-6.799-3.038-6.799-6.802C-13.299-7.925-10.447-10.93-6.85-11.113z"/>
</svg>
